<svg width="24" height="24" viewBox="0 0 24 24" fill="none" xmlns="http://www.w3.org/2000/svg">
    <mask id="mask0_5079_5109" style="mask-type:alpha" maskUnits="userSpaceOnUse" x="0" y="0" width="24" height="24">
        <rect width="24" height="24" fill="#D9D9D9"/>
    </mask>
    <g mask="url(#mask0_5079_5109)">
        <path d="M17.1115 13.0868H5.75C5.53717 13.0868 5.359 13.0149 5.2155 12.8713C5.07183 12.7278 5 12.5496 5 12.3368C5 12.1239 5.07183 11.9458 5.2155 11.8023C5.359 11.6586 5.53717 11.5868 5.75 11.5868H17.1115L13.8193 8.2945C13.6706 8.14567 13.5972 7.97158 13.599 7.77225C13.601 7.57292 13.6744 7.39567 13.8193 7.2405C13.9744 7.0855 14.1526 7.00542 14.3538 7.00025C14.5551 6.99508 14.7333 7.07008 14.8885 7.22525L19.3673 11.704C19.4609 11.7977 19.5269 11.8964 19.5652 12.0003C19.6037 12.1041 19.623 12.2163 19.623 12.3368C19.623 12.4573 19.6037 12.5694 19.5652 12.6733C19.5269 12.7771 19.4609 12.8758 19.3673 12.9695L14.8885 17.4482C14.7397 17.5969 14.5631 17.6703 14.3587 17.6685C14.1542 17.6665 13.9744 17.588 13.8193 17.433C13.6744 17.2778 13.5994 17.1022 13.5943 16.906C13.5891 16.7098 13.6641 16.5342 13.8193 16.379L17.1115 13.0868Z" fill="white"/>
    </g>
</svg>
