<svg width="24" height="24" viewBox="0 0 24 24" fill="none" xmlns="http://www.w3.org/2000/svg">
    <mask id="mask0_5079_5103" style="mask-type:alpha" maskUnits="userSpaceOnUse" x="0" y="0" width="24" height="24">
        <rect width="24" height="24" fill="#D9D9D9"/>
    </mask>
    <g mask="url(#mask0_5079_5103)">
        <path d="M7.51155 11.5818L18.873 11.5818C19.0859 11.5818 19.264 11.6536 19.4075 11.7973C19.5512 11.9408 19.623 12.1189 19.623 12.3318C19.623 12.5446 19.5512 12.7228 19.4075 12.8663C19.264 13.0099 19.0859 13.0818 18.873 13.0818L7.51155 13.0818L10.8038 16.374C10.9525 16.5229 11.0259 16.6969 11.024 16.8963C11.022 17.0956 10.9486 17.2729 10.8038 17.428C10.6486 17.583 10.4705 17.6631 10.2693 17.6683C10.068 17.6734 9.88971 17.5984 9.73455 17.4433L5.2558 12.9645C5.16213 12.8709 5.09613 12.7721 5.0578 12.6683C5.0193 12.5644 5.00005 12.4523 5.00005 12.3318C5.00005 12.2113 5.0193 12.0991 5.0578 11.9953C5.09613 11.8914 5.16213 11.7927 5.2558 11.699L9.73455 7.22028C9.88338 7.07162 10.06 6.9982 10.2643 7.00003C10.4688 7.00203 10.6486 7.08053 10.8038 7.23553C10.9486 7.3907 11.0236 7.56637 11.0288 7.76253C11.034 7.9587 10.959 8.13437 10.8038 8.28953L7.51155 11.5818Z" fill="#0073A8"/>
    </g>
</svg>
