<svg width="12" height="12" viewBox="0 0 12 12" xmlns="http://www.w3.org/2000/svg">
<path d="M6 6.99657L1.20227 11.7945C1.07128 11.9254 0.906648 11.9924 0.708358 11.9955C0.510226 11.9985 0.342594 11.9315 0.205462 11.7945C0.0684873 11.6574 0 11.4913 0 11.2961C0 11.101 0.0684873 10.9349 0.205462 10.7977L5.00343 6L0.205462 1.20227C0.0746346 1.07129 0.00764477 0.906648 0.00449231 0.708358C0.00149748 0.510226 0.0684873 0.342594 0.205462 0.205462C0.342594 0.0684873 0.508728 0 0.703866 0C0.899003 0 1.06514 0.0684873 1.20227 0.205462L6 5.00343L10.7977 0.205462C10.9287 0.0746346 11.0934 0.00764477 11.2916 0.00449231C11.4898 0.00149748 11.6574 0.0684873 11.7945 0.205462C11.9315 0.342594 12 0.508729 12 0.703866C12 0.899003 11.9315 1.06514 11.7945 1.20227L6.99657 6L11.7945 10.7977C11.9254 10.9287 11.9924 11.0934 11.9955 11.2916C11.9985 11.4898 11.9315 11.6574 11.7945 11.7945C11.6574 11.9315 11.4913 12 11.2961 12C11.101 12 10.9349 11.9315 10.7977 11.7945L6 6.99657Z"/>
</svg>
