<svg width="15" height="15" viewBox="0 0 15 15" fill="none" xmlns="http://www.w3.org/2000/svg">
<path d="M7.5 15C9.59383 15 11.3672 14.2736 12.8202 12.8207C14.2734 11.3679 15 9.59483 15 7.5015C15 5.40817 14.2734 3.63458 12.8202 2.18075C11.3672 0.726916 9.59383 0 7.5 0C6.33083 0 5.22442 0.259917 4.18075 0.77975C3.13725 1.29975 2.26933 2.03342 1.577 2.98075V0.75C1.577 0.5375 1.50508 0.359417 1.36125 0.21575C1.21742 0.0719168 1.03925 0 0.82675 0C0.614083 0 0.435999 0.0719168 0.292499 0.21575C0.148832 0.359417 0.0769987 0.5375 0.0769987 0.75V5.2115C0.0769987 5.46767 0.163583 5.68233 0.336749 5.8555C0.510082 6.02867 0.72475 6.11525 0.980749 6.11525H5.44225C5.65475 6.11525 5.83292 6.04342 5.97675 5.89975C6.12042 5.75592 6.19225 5.57767 6.19225 5.365C6.19225 5.1525 6.12042 4.97442 5.97675 4.83075C5.83292 4.68725 5.65475 4.6155 5.44225 4.6155H2.24225C2.76925 3.65 3.50008 2.88942 4.43475 2.33375C5.36925 1.77792 6.391 1.5 7.5 1.5C9.16667 1.5 10.5833 2.08333 11.75 3.25C12.9167 4.41667 13.5 5.83333 13.5 7.5C13.5 9.16667 12.9167 10.5833 11.75 11.75C10.5833 12.9167 9.16667 13.5 7.5 13.5C6.33783 13.5 5.27392 13.1948 4.30825 12.5845C3.34258 11.9743 2.611 11.1602 2.1135 10.1423C2.01867 9.96025 1.87925 9.833 1.69525 9.7605C1.51125 9.68817 1.32375 9.684 1.13275 9.748C0.928916 9.81217 0.78625 9.9455 0.70475 10.148C0.623417 10.3507 0.630166 10.543 0.724999 10.725C1.34433 12.0198 2.2585 13.056 3.4675 13.8335C4.6765 14.6112 6.02067 15 7.5 15Z" fill="#0073A8"/>
</svg>
