<svg width="28" height="24" viewBox="0 0 28 24" fill="none" xmlns="http://www.w3.org/2000/svg">
<path d="M27.9231 7.3519C27.877 7.16962 27.8155 6.98734 27.7232 6.80506L24.9863 1.3519C24.771 0.941772 24.4635 0.607595 24.0637 0.364557C23.6639 0.121519 23.2334 0 22.7567 0H5.24327C4.76661 0 4.33608 0.121519 3.9363 0.364557C3.55189 0.607595 3.229 0.941772 3.01373 1.3519L0.276771 6.80506C0.184514 6.98734 0.123009 7.16962 0.0768808 7.3519C0.0307523 7.53418 0 7.71646 0 7.91392C0 8.20253 0.0461285 8.47595 0.138386 8.74937C0.246019 9.0076 0.384404 9.25063 0.568918 9.46329L12.101 23.1342C12.3471 23.4228 12.6392 23.6506 12.9621 23.7873C13.3004 23.924 13.6387 24 14.0077 24C14.3613 24 14.6996 23.924 15.0379 23.7873C15.3608 23.6506 15.6529 23.4228 15.899 23.1342L27.4311 9.46329C27.6156 9.25063 27.7694 9.0076 27.8616 8.74937C27.9539 8.47595 28 8.20253 28 7.91392C28 7.71646 27.9846 7.53418 27.9231 7.3519ZM15.8221 1.70127L18.8973 7.77722H9.10269L12.1779 1.70127H15.8221ZM4.42834 2.23291C4.50522 2.06582 4.61285 1.9443 4.78199 1.85316C4.93575 1.74684 5.10489 1.70127 5.27403 1.70127H10.4712L7.39594 7.77722H1.6145L4.42834 2.23291ZM2.30643 9.2962H7.39594L13.2389 22.2987L2.30643 9.2962ZM14 20.7342L8.93355 9.2962H18.8958L14 20.7342ZM14.735 22.2987L20.601 9.2962H25.6936L14.735 22.2987ZM20.6041 7.77722L17.5288 1.70127H22.726C22.8951 1.70127 23.0643 1.74684 23.2334 1.85316C23.3871 1.9443 23.5102 2.06582 23.587 2.23291L26.3855 7.77722H20.6041Z" fill="white"/>
</svg>
