<svg width="28" height="28" viewBox="0 0 28 28" fill="none" xmlns="http://www.w3.org/2000/svg">
<path fill-rule="evenodd" clip-rule="evenodd" d="M18.6674 14C18.6674 11.5583 16.5778 9.57895 14 9.57895C11.4223 9.57895 9.33258 11.5583 9.33258 14C9.33258 16.4417 11.4223 18.4211 14 18.4211C16.5778 18.4211 18.6674 16.4417 18.6674 14ZM17.1116 14C17.1116 12.3722 15.7185 11.0526 14 11.0526C12.2815 11.0526 10.8884 12.3722 10.8884 14C10.8884 15.6278 12.2815 16.9474 14 16.9474C15.7185 16.9474 17.1116 15.6278 17.1116 14Z" fill="white"/>
<path fill-rule="evenodd" clip-rule="evenodd" d="M10.902 0.500316C11.2878 0.166772 11.746 0 12.2766 0H15.7234C16.254 0 16.7122 0.166772 17.098 0.500316C17.4841 0.833613 17.719 1.24403 17.8028 1.73158L18.1828 4.50321C18.6036 4.64493 19.0145 4.82779 19.4154 5.05179C19.8163 5.27554 20.2092 5.53295 20.5943 5.824L23.2571 4.73863C23.7459 4.53453 24.2396 4.51463 24.7382 4.67895C25.2368 4.84326 25.6227 5.14181 25.8957 5.57458L27.6581 8.43979C27.9314 8.87231 28.0077 9.33002 27.8872 9.81289C27.7663 10.2955 27.4985 10.6937 27.0836 11.0073L24.7382 12.6792C24.7999 12.9457 24.8357 13.1824 24.8456 13.3892C24.8557 13.5962 24.8607 13.7998 24.8607 14C24.8607 14.2098 24.8583 14.418 24.8533 14.6248C24.8481 14.8319 24.8177 15.0544 24.7619 15.2924L27.1524 16.9927C27.5673 17.3063 27.8326 17.7045 27.9482 18.1871C28.0641 18.67 27.9854 19.1277 27.7121 19.5602L25.9735 22.4114C25.7005 22.8346 25.3171 23.1307 24.8234 23.2997C24.3297 23.4689 23.8386 23.4515 23.35 23.2474L20.5943 22.176C20.2092 22.4671 19.8277 22.7198 19.4496 22.9342C19.0718 23.1486 18.6495 23.3362 18.1828 23.4968L17.8028 26.2684C17.719 26.756 17.4841 27.1664 17.098 27.4997C16.7122 27.8332 16.254 28 15.7234 28H12.2766C11.746 28 11.2878 27.8332 10.902 27.4997C10.5159 27.1664 10.281 26.756 10.1972 26.2684L9.80242 23.5108C9.39143 23.3691 8.97305 23.1815 8.54728 22.9482C8.1215 22.7149 7.72101 22.4575 7.3458 22.176L4.66514 23.2474C4.17636 23.4515 3.68524 23.4689 3.19179 23.2997C2.69808 23.1307 2.31457 22.8346 2.04127 22.4114L0.30304 19.5746C0.0297356 19.1418 -0.0515553 18.6818 0.0591665 18.1945C0.169888 17.7069 0.432691 17.3063 0.847573 16.9927L3.17818 15.3348C3.14239 15.0779 3.11698 14.8412 3.10194 14.6248C3.0869 14.4085 3.07938 14.1955 3.07938 13.986C3.07938 13.7667 3.0869 13.5465 3.10194 13.3254C3.11698 13.1044 3.14239 12.8843 3.17818 12.6652L0.847573 11.0073C0.432691 10.6937 0.167425 10.2955 0.0517763 9.81289C-0.0641315 9.33002 0.0145665 8.87231 0.28787 8.43979L2.04127 5.56021C2.31457 5.12768 2.69808 4.82926 3.19179 4.66495C3.68524 4.50039 4.17636 4.52016 4.66514 4.72426L7.36097 5.80963C7.7061 5.53774 8.09752 5.28267 8.53522 5.04442C8.97318 4.80642 9.40051 4.62135 9.81721 4.48921L10.1972 1.73158C10.281 1.24403 10.5159 0.833613 10.902 0.500316ZM15.5021 2.21053H12.4442L11.9386 6.14416C11.1249 6.34065 10.3818 6.62212 9.70947 6.98858C9.03736 7.35528 8.40609 7.82575 7.81566 8.4L3.96503 6.85263L2.43333 9.35789L5.77832 11.7666C5.65853 12.1257 5.5727 12.4895 5.52084 12.8579C5.46898 13.2263 5.44305 13.6024 5.44305 13.986C5.44305 14.4035 5.46898 14.8012 5.52084 15.1789C5.5727 15.5567 5.66345 15.9205 5.7931 16.2702L2.43333 18.6421L3.96503 21.1474L7.83044 19.6228C8.44083 20.2008 9.08222 20.6731 9.75458 21.0398C10.4267 21.4062 11.1596 21.6783 11.9533 21.8558L12.4683 25.7895H15.5558L16.0467 21.8418C16.7906 21.6736 17.5261 21.3873 18.2532 20.9831C18.98 20.5788 19.6038 20.1131 20.1244 19.586L24.035 21.1474L25.5667 18.6421L22.1622 16.205C22.2918 15.8326 22.38 15.4679 22.4267 15.1108C22.4736 14.7539 22.4971 14.3836 22.4971 14C22.4971 13.6259 22.4736 13.2557 22.4267 12.8892C22.38 12.5225 22.2918 12.1483 22.1622 11.7666L25.5371 9.35789L24.005 6.85263L20.1396 8.39153C19.5292 7.82293 18.8954 7.35761 18.238 6.99558C17.581 6.63379 16.8554 6.35465 16.0614 6.15816L15.5021 2.21053Z" fill="white"/>
</svg>
